<?xml version="1.0" standalone="no"?>
<!DOCTYPE svg PUBLIC "-//W3C//DTD SVG 20010904//EN"
 "http://www.w3.org/TR/2001/REC-SVG-20010904/DTD/svg10.dtd">
<svg version="1.0" xmlns="http://www.w3.org/2000/svg"
 width="2048.000000pt" height="2048.000000pt" viewBox="0 0 2048.000000 2048.000000"
 preserveAspectRatio="xMidYMid meet">
<metadata>
Created by potrace 1.14, written by Peter Selinger 2001-2017
</metadata>
<g transform="translate(0.000000,2048.000000) scale(0.100000,-0.100000)"
fill="#000000" stroke="none">
<path d="M9517 20474 c-1 -1 -40 -4 -87 -8 -47 -3 -96 -8 -110 -11 -13 -2 -42
-7 -65 -11 -46 -7 -69 -12 -72 -14 -2 -2 -7 -4 -13 -5 -5 -1 -12 -4 -15 -5 -3
-1 -9 -4 -15 -5 -5 -1 -13 -4 -17 -5 -5 -1 -12 -3 -18 -5 -5 -1 -12 -3 -15 -4
-3 -2 -12 -4 -20 -6 -8 -2 -28 -9 -45 -16 -16 -7 -33 -13 -37 -14 -5 -2 -11
-4 -15 -5 -5 -1 -11 -2 -15 -1 -5 0 -8 -3 -8 -9 0 -5 -5 -10 -12 -10 -13 0
-150 -61 -158 -70 -3 -3 -21 -14 -40 -23 -34 -17 -63 -34 -84 -50 -123 -89
-135 -98 -237 -202 -219 -223 -424 -433 -454 -467 -18 -20 -36 -34 -39 -30 -3
3 -6 0 -6 -7 0 -6 -21 -33 -47 -60 -78 -77 -306 -320 -315 -333 -4 -7 -8 -9
-8 -4 0 6 -10 -3 -22 -20 -13 -16 -56 -63 -95 -104 -40 -40 -73 -74 -73 -75 0
-1 -46 -50 -102 -108 -57 -58 -151 -156 -209 -216 -59 -61 -104 -113 -101
-116 3 -3 0 -5 -6 -5 -6 0 -17 -6 -24 -14 -175 -184 -285 -299 -378 -396 -63
-65 -176 -182 -250 -260 -74 -78 -178 -186 -230 -240 -52 -54 -171 -178 -265
-276 -93 -97 -211 -219 -260 -270 -50 -52 -90 -94 -89 -94 1 0 -46 -49 -105
-109 -58 -60 -178 -184 -266 -276 -88 -93 -194 -203 -235 -246 -95 -98 -390
-405 -506 -527 -49 -51 -125 -130 -169 -176 -44 -45 -92 -97 -107 -115 -16
-18 -28 -30 -28 -27 0 3 -16 -11 -35 -33 -20 -21 -68 -73 -108 -114 -39 -41
-119 -124 -176 -183 -57 -60 -139 -146 -182 -191 -44 -45 -79 -86 -79 -92 0
-6 -4 -11 -9 -11 -8 0 -101 -134 -101 -145 0 -7 -11 -21 -66 -83 -38 -44 -74
-110 -125 -233 -12 -30 -26 -58 -31 -63 -4 -6 -8 -18 -8 -28 0 -10 -4 -18 -10
-18 -5 0 -10 -7 -10 -16 0 -9 -7 -28 -14 -42 -8 -15 -22 -43 -30 -62 -8 -19
-51 -115 -95 -214 -45 -98 -81 -180 -81 -183 0 -2 -14 -33 -30 -69 -17 -35
-48 -104 -69 -152 -21 -48 -49 -109 -61 -137 -12 -27 -28 -63 -35 -80 -7 -16
-24 -55 -38 -85 -14 -30 -35 -77 -47 -105 -12 -27 -35 -78 -51 -111 -16 -34
-29 -69 -29 -78 0 -9 -4 -16 -10 -16 -5 0 -10 -4 -10 -10 0 -5 -30 -76 -66
-157 -36 -82 -72 -161 -79 -178 -8 -16 -30 -65 -49 -108 -20 -42 -36 -79 -36
-81 0 -4 -43 -100 -88 -195 -8 -18 -15 -39 -15 -47 0 -7 -6 -15 -13 -18 -8 -3
-11 -12 -8 -21 3 -8 2 -15 -3 -15 -5 0 -15 -17 -22 -37 -8 -21 -29 -71 -48
-113 -19 -41 -44 -95 -55 -120 -12 -25 -21 -51 -21 -57 0 -7 -3 -13 -7 -13 -4
0 -15 -21 -25 -47 -10 -27 -22 -52 -26 -57 -5 -6 -9 -18 -9 -28 0 -10 -4 -18
-10 -18 -5 0 -10 -6 -10 -14 0 -17 -62 -139 -72 -144 -5 -2 -8 -12 -8 -22 0
-10 -4 -22 -10 -25 -5 -3 -24 -34 -41 -68 -17 -34 -46 -89 -64 -122 -18 -33
-31 -63 -29 -67 3 -5 0 -8 -6 -8 -6 0 -18 -15 -26 -32 -16 -35 -68 -134 -123
-233 -19 -33 -49 -89 -68 -125 -20 -36 -40 -71 -45 -77 -6 -7 -7 -13 -2 -13 5
0 4 -4 -1 -8 -9 -6 -30 -43 -94 -167 -9 -16 -18 -32 -21 -35 -3 -3 -18 -32
-35 -65 -16 -33 -32 -62 -35 -65 -3 -3 -19 -32 -36 -65 -71 -136 -89 -170 -94
-175 -3 -3 -18 -32 -35 -65 -16 -33 -32 -62 -35 -65 -3 -3 -27 -48 -54 -100
-27 -52 -56 -104 -65 -114 -13 -16 -13 -18 -1 -12 12 6 12 5 0 -6 -9 -7 -22
-28 -29 -45 -7 -18 -17 -33 -22 -33 -5 0 -9 -9 -9 -20 0 -11 -5 -20 -11 -20
-5 0 -8 -4 -4 -9 3 -5 1 -12 -3 -15 -5 -3 -27 -40 -49 -83 -22 -43 -51 -96
-63 -118 -64 -112 -170 -338 -170 -361 0 -8 -4 -14 -10 -14 -5 0 -9 -3 -8 -7
2 -10 -24 -96 -32 -103 -3 -3 -6 -12 -7 -20 -1 -8 -4 -24 -7 -35 -17 -60 -56
-236 -62 -275 -3 -25 -7 -56 -10 -70 -2 -14 -6 -43 -9 -65 -3 -22 -10 -73 -16
-114 -6 -40 -12 -88 -14 -105 -2 -17 -4 -31 -5 -31 -1 0 -3 -13 -5 -30 -2 -16
-9 -70 -16 -120 -6 -49 -13 -103 -16 -120 -2 -16 -5 -43 -8 -60 -2 -16 -7 -48
-9 -70 -3 -22 -7 -56 -10 -75 -8 -47 -16 -107 -21 -155 -3 -22 -7 -55 -10 -72
-5 -33 -11 -77 -20 -140 -3 -18 -7 -50 -10 -70 -3 -21 -8 -51 -10 -68 -11 -88
-17 -133 -21 -155 -2 -14 -7 -45 -10 -70 -3 -25 -7 -55 -9 -66 -4 -26 -17
-129 -21 -164 -1 -14 -3 -25 -4 -25 -1 0 -3 -11 -5 -25 -1 -14 -6 -50 -10 -80
-4 -30 -9 -66 -11 -80 -1 -14 -6 -45 -9 -70 -4 -25 -7 -57 -8 -72 -1 -16 -4
-28 -7 -28 -3 0 -6 -17 -6 -38 -1 -20 -4 -55 -8 -77 -18 -115 -35 -245 -42
-310 -3 -27 -7 -52 -10 -54 -2 -2 0 -9 5 -15 10 -13 66 -188 63 -198 -1 -5 2
-8 6 -8 5 0 9 -7 10 -15 1 -8 3 -22 4 -30 1 -8 4 -15 8 -15 4 0 7 -6 7 -12 0
-7 28 -96 63 -198 34 -102 64 -192 66 -200 2 -8 15 -49 30 -90 14 -41 27 -80
28 -87 1 -7 5 -16 9 -19 4 -4 7 -16 7 -26 0 -10 5 -18 11 -18 5 0 8 -4 5 -9
-6 -9 21 -97 34 -116 4 -5 13 -34 20 -62 6 -29 15 -53 19 -53 4 0 13 -21 20
-48 8 -26 17 -51 21 -57 3 -5 17 -38 30 -72 14 -35 27 -63 30 -63 3 0 6 -8 7
-18 1 -10 24 -65 52 -122 28 -58 51 -110 51 -116 0 -7 4 -14 8 -16 4 -1 26
-39 48 -83 52 -102 102 -193 125 -227 11 -14 19 -30 19 -36 0 -5 7 -15 15 -22
9 -7 13 -15 11 -17 -3 -3 0 -10 5 -17 6 -6 51 -74 101 -151 50 -77 94 -142 97
-145 3 -3 20 -25 36 -50 28 -41 55 -76 80 -104 6 -6 22 -27 35 -46 13 -19 27
-37 30 -40 3 -3 27 -32 54 -65 53 -66 120 -143 211 -243 87 -96 941 -946 1020
-1017 104 -92 107 -95 117 -95 4 0 8 -6 8 -14 0 -7 14 -19 30 -26 17 -7 30
-16 30 -20 0 -4 48 -45 108 -91 59 -46 109 -87 110 -91 2 -5 8 -8 14 -8 6 0
24 -11 42 -25 45 -36 42 -34 145 -103 127 -86 251 -162 262 -162 5 0 9 -3 9
-8 0 -4 17 -15 38 -25 20 -9 53 -27 72 -39 19 -11 121 -64 225 -116 105 -53
193 -101 197 -107 4 -5 8 -7 8 -3 0 4 50 -18 110 -48 61 -29 114 -54 119 -54
5 0 11 -3 13 -7 2 -5 73 -42 158 -83 85 -41 157 -78 160 -82 3 -3 18 -10 33
-13 15 -4 27 -11 27 -16 0 -5 3 -8 8 -7 4 1 81 -34 172 -79 165 -81 256 -124
275 -129 6 -1 60 -23 120 -47 116 -47 145 -59 158 -62 4 -2 8 -3 10 -5 1 -1 9
-3 17 -5 8 -2 49 -16 90 -30 41 -15 82 -28 90 -30 8 -2 15 -4 15 -5 0 -3 28
-10 63 -16 17 -4 32 -11 32 -17 0 -6 3 -8 6 -5 3 4 20 2 37 -3 18 -6 39 -12
47 -14 8 -2 30 -8 48 -14 18 -5 33 -10 35 -10 3 1 37 -7 117 -25 36 -9 79 -18
95 -21 31 -6 54 -11 95 -21 14 -3 39 -7 55 -9 17 -2 40 -6 51 -9 42 -9 228
-37 279 -41 17 -2 57 -6 90 -10 33 -4 80 -9 105 -10 25 -2 45 -3 45 -4 0 -8
351 -13 880 -13 352 0 1086 0 1630 1 545 0 2259 -1 3810 -2 1551 0 2857 2
2902 6 66 6 191 26 248 41 6 1 26 6 45 10 19 5 40 11 45 14 6 4 16 8 23 9 6 2
18 4 25 6 12 3 60 20 112 42 17 6 46 18 65 25 57 22 264 131 272 143 4 7 8 8
8 2 0 -7 3 -7 8 0 11 15 70 55 82 55 5 0 10 4 10 9 0 4 19 21 42 36 24 16 47
34 51 42 5 7 12 11 18 8 5 -4 9 1 9 9 0 9 4 16 8 16 9 0 325 315 382 380 17
19 49 60 72 90 23 30 47 60 53 65 6 6 25 30 42 55 18 25 43 59 58 75 100 115
133 152 153 173 12 14 22 29 22 33 0 5 8 9 17 9 9 0 14 3 10 6 -5 6 11 26 83
104 19 21 49 55 67 77 17 21 53 61 78 88 26 28 56 63 68 79 12 15 38 45 57 66
19 20 60 65 90 100 30 34 60 68 65 74 56 63 178 203 212 243 25 28 116 132
173 197 25 28 57 63 73 79 15 16 27 32 27 35 0 4 16 21 35 37 19 17 35 34 35
38 0 4 10 18 23 31 12 13 47 51 77 86 30 35 65 73 78 86 12 13 22 25 22 28 0
3 12 18 28 34 46 49 87 96 111 129 14 18 28 30 33 27 4 -3 8 -1 8 4 0 5 9 20
20 33 67 79 88 103 113 129 15 15 27 34 27 41 0 7 3 10 6 7 3 -4 31 24 62 60
31 37 66 77 77 89 19 20 86 96 135 153 12 14 43 50 70 80 27 30 57 65 68 78
11 12 47 53 80 90 102 114 203 236 214 260 6 12 15 22 20 22 4 0 8 7 8 15 0 8
3 15 8 15 4 0 12 10 18 23 6 12 32 62 59 110 45 83 96 207 98 235 0 6 4 12 9
12 4 0 7 3 7 8 -1 4 0 9 1 12 1 3 3 14 5 25 2 11 13 62 24 113 44 199 48 413
11 622 -5 30 -11 66 -14 80 -2 14 -7 36 -10 50 -8 36 -17 90 -22 125 -2 17 -8
50 -14 75 -13 51 -21 103 -23 143 -1 15 -4 27 -7 27 -3 0 -5 12 -4 27 1 16 -1
32 -4 37 -3 5 -7 35 -8 65 -2 56 -9 113 -19 161 -13 60 -16 79 -31 155 -9 44
-18 91 -20 105 -3 14 -7 32 -9 40 -6 21 -17 80 -20 110 -2 14 -4 25 -5 25 -1
0 -3 9 -5 20 -2 11 -7 36 -11 55 -4 19 -8 42 -9 50 -1 8 -5 26 -8 40 -4 14 -9
39 -11 55 -3 17 -7 41 -10 55 -3 14 -15 70 -25 125 -25 126 -29 144 -61 305
-10 52 -21 106 -24 120 -2 14 -7 36 -10 50 -3 14 -8 37 -10 52 -3 15 -12 63
-20 105 -9 43 -18 89 -20 103 -3 14 -5 25 -6 25 -2 0 -7 32 -11 73 -2 17 -6
32 -9 32 -3 0 -6 10 -6 23 -1 12 -8 58 -17 102 -9 44 -19 97 -23 119 -3 21
-17 93 -30 160 -14 66 -27 135 -30 151 -3 17 -7 39 -9 50 -7 35 -17 90 -18
103 0 6 -3 12 -6 12 -3 0 -6 10 -7 23 0 12 -3 36 -7 52 -6 29 -11 56 -22 110
-3 14 -8 37 -11 53 -3 15 -7 36 -9 47 -2 11 -6 32 -9 47 -3 16 -8 38 -10 50
-2 13 -15 79 -30 148 -14 69 -28 140 -31 159 -3 19 -8 37 -10 40 -2 4 -6 27
-9 51 -3 25 -10 63 -15 84 -6 22 -8 44 -5 48 3 4 1 8 -3 8 -5 0 -9 8 -10 18
-1 16 -5 36 -17 92 -3 14 -7 37 -8 52 -1 16 -6 28 -11 28 -4 0 -6 3 -3 8 4 6
-6 66 -18 112 -3 8 -5 28 -5 43 -1 16 -4 26 -8 24 -5 -3 -9 11 -9 31 -1 21
-11 82 -23 137 -12 55 -24 116 -27 135 -3 19 -9 51 -14 70 -5 19 -12 53 -16
75 -3 22 -12 66 -19 98 -7 31 -14 60 -14 62 -1 3 -1 6 -2 8 -2 7 -8 40 -12 74
-3 21 -8 45 -11 53 -3 8 -8 33 -11 55 -7 46 -13 70 -15 70 -1 0 -3 11 -5 25
-1 14 -5 36 -8 50 -27 132 -58 287 -63 317 -3 21 -9 52 -14 68 -5 17 -11 41
-12 55 -2 14 -7 31 -11 38 -5 6 -6 16 -2 21 3 5 1 12 -4 15 -5 4 -8 14 -7 24
2 9 -1 20 -6 23 -5 3 -11 19 -14 35 -11 67 -84 254 -148 382 -64 128 -90 173
-165 285 -25 38 -50 76 -56 85 -5 9 -15 21 -21 27 -5 5 -28 33 -49 60 -87 109
-263 288 -350 352 -40 30 -115 93 -142 120 -18 17 -33 29 -33 27 0 -3 -20 14
-44 38 -24 24 -63 59 -86 78 -23 19 -58 50 -76 69 -19 18 -34 31 -34 28 0 -2
-19 14 -43 37 -43 40 -157 144 -207 186 -14 12 -44 39 -67 61 -24 22 -43 38
-43 36 0 -2 -19 14 -43 37 -39 36 -134 122 -218 196 -15 14 -43 38 -61 54 -18
16 -54 48 -79 70 -25 23 -73 66 -108 96 -35 30 -83 74 -107 97 -24 24 -44 41
-44 39 0 -3 -16 10 -35 28 -19 18 -60 55 -91 82 -30 27 -68 60 -83 74 -128
115 -180 161 -201 180 -32 27 -133 116 -175 155 -18 17 -58 53 -90 80 -32 28
-70 61 -85 75 -15 14 -60 54 -100 90 -40 36 -83 74 -96 85 -12 11 -50 45 -84
75 -35 30 -75 66 -90 80 -15 14 -51 45 -79 70 -28 25 -75 67 -104 93 -29 27
-62 56 -74 64 -13 8 -23 21 -23 28 0 7 -5 15 -11 17 -5 2 -11 10 -12 18 -1 9
-12 31 -23 50 -12 19 -43 76 -69 125 -26 50 -58 109 -71 132 -12 22 -21 44
-18 47 2 3 1 4 -2 1 -4 -2 -32 44 -62 103 -30 59 -57 109 -61 112 -3 3 -22 37
-41 75 -19 39 -37 72 -40 75 -3 3 -15 25 -27 50 -12 25 -38 74 -58 109 -20 36
-61 112 -92 170 -31 59 -59 111 -63 116 -7 9 -70 126 -132 245 -12 25 -26 47
-30 48 -5 2 -8 8 -8 14 0 6 -21 47 -46 92 -25 44 -46 86 -47 91 -1 6 -5 12 -8
15 -3 3 -19 30 -35 60 -16 30 -33 58 -39 62 -5 4 -6 8 -1 8 5 0 4 6 -1 13 -13
15 -60 100 -110 198 -21 41 -40 76 -43 79 -3 3 -21 34 -40 70 -19 36 -49 92
-66 125 -18 33 -45 85 -60 115 -16 30 -31 57 -34 60 -3 3 -14 23 -26 45 -23
44 -90 169 -137 255 -16 30 -34 60 -38 66 -5 6 -7 13 -4 16 3 3 -1 11 -10 18
-8 7 -15 19 -15 26 0 8 -4 14 -8 14 -8 0 -36 60 -33 73 0 4 -3 7 -7 7 -5 0
-14 16 -22 35 -8 19 -18 35 -22 35 -5 0 -7 4 -4 9 3 5 -1 14 -9 21 -8 7 -15
16 -15 21 0 9 -99 179 -110 189 -3 3 -17 23 -31 45 -14 22 -57 86 -95 143 -38
56 -79 119 -91 140 -13 20 -23 33 -23 27 -1 -5 -8 4 -17 20 -15 29 -122 171
-153 205 -8 9 -37 43 -65 75 -81 94 -182 192 -290 281 -66 54 -247 174 -310
204 -27 14 -52 27 -55 30 -12 14 -294 140 -356 160 -22 7 -43 16 -49 20 -5 4
-19 10 -30 13 -11 3 -99 33 -195 66 -96 34 -209 73 -250 87 -41 14 -84 29 -95
34 -11 5 -40 16 -65 24 -25 8 -95 32 -156 55 -62 22 -115 37 -118 34 -3 -4 -6
-1 -6 5 0 7 -6 12 -14 12 -8 0 -27 5 -43 12 -15 6 -31 12 -35 13 -5 2 -10 4
-13 5 -3 1 -9 3 -14 4 -5 0 -13 4 -17 9 -4 4 -17 7 -29 7 -12 0 -30 7 -41 15
-10 8 -25 15 -33 15 -12 0 -274 89 -326 110 -32 13 -59 23 -75 27 -25 6 -34 9
-65 23 -39 16 -310 112 -310 109 0 -2 -87 22 -152 42 -18 6 -37 7 -43 4 -5 -3
-10 -1 -10 5 0 6 -6 10 -12 9 -7 -2 -39 3 -71 10 -32 7 -75 15 -95 17 -20 3
-48 7 -62 10 -56 10 -364 26 -373 18z"/>
</g>
</svg>
